<svg xmlns="http://www.w3.org/2000/svg" xmlns:xlink="http://www.w3.org/1999/xlink" width="388" height="273" viewBox="0 0 388 273"><rect width="100%" height="100%" fill="#DDDDDD"/><path d="M100.59 149.41L81.24 125.29L81.24 149.41L73.93 149.41L73.93 111.78L79.60 111.78L99.21 136.47L99.21 111.83L106.52 111.83L106.52 149.41L100.59 149.41ZM126.13 149.94L126.13 149.94Q122.74 149.94 120.04 148.77Q117.34 147.60 115.45 145.62Q113.57 143.63 112.57 141.03Q111.56 138.43 111.56 135.57L111.56 135.57Q111.56 132.66 112.57 130.06Q113.57 127.46 115.45 125.48Q117.34 123.49 120.04 122.32Q122.74 121.16 126.13 121.16L126.13 121.16Q129.53 121.16 132.20 122.32Q134.88 123.49 136.76 125.48Q138.64 127.46 139.65 130.06Q140.66 132.66 140.66 135.57L140.66 135.57Q140.66 138.43 139.65 141.03Q138.64 143.63 136.79 145.62Q134.93 147.60 132.23 148.77Q129.53 149.94 126.13 149.94ZM118.87 135.57L118.87 135.57Q118.87 137.43 119.43 138.94Q119.99 140.45 120.97 141.56Q121.95 142.67 123.27 143.28Q124.60 143.89 126.13 143.89L126.13 143.89Q127.67 143.89 129.00 143.28Q130.32 142.67 131.30 141.56Q132.28 140.45 132.84 138.91Q133.39 137.37 133.39 135.52L133.39 135.52Q133.39 133.72 132.84 132.18Q132.28 130.64 131.30 129.53Q130.32 128.42 129.00 127.81Q127.67 127.20 126.13 127.20L126.13 127.20Q124.60 127.20 123.27 127.83Q121.95 128.47 120.97 129.58Q119.99 130.70 119.43 132.23Q118.87 133.77 118.87 135.57ZM166.15 149.41L158.83 149.41L158.83 111.78L166.15 111.78L166.15 149.41ZM216.45 132.07L216.45 149.41L209.34 149.41L209.34 133.82Q209.34 130.48 208.20 128.95Q207.06 127.41 205.05 127.41L205.05 127.41Q202.93 127.41 201.08 129.03Q199.22 130.64 198.43 133.24L198.43 133.24L198.43 149.41L191.32 149.41L191.32 133.82Q191.32 130.48 190.18 128.95Q189.04 127.41 187.03 127.41L187.03 127.41Q184.96 127.41 183.08 129.00Q181.20 130.59 180.41 133.19L180.41 133.19L180.41 149.41L173.30 149.41L173.30 121.63L179.72 121.63L179.72 126.77Q181.25 124.07 183.93 122.61Q186.61 121.16 190.05 121.16L190.05 121.16Q193.55 121.16 195.46 122.85Q197.37 124.55 197.90 127.04L197.90 127.04Q199.59 124.18 202.19 122.67Q204.79 121.16 208.12 121.16L208.12 121.16Q210.67 121.16 212.31 122.11Q213.95 123.06 214.86 124.60Q215.76 126.14 216.10 128.10Q216.45 130.06 216.45 132.07L216.45 132.07ZM230.23 149.94L230.23 149.94Q228.21 149.94 226.46 149.27Q224.71 148.61 223.44 147.42Q222.17 146.23 221.45 144.64Q220.74 143.05 220.74 141.14L220.74 141.14Q220.74 139.18 221.61 137.51Q222.49 135.84 224.05 134.67Q225.61 133.51 227.79 132.84Q229.96 132.18 232.56 132.18L232.56 132.18Q234.41 132.18 236.19 132.50Q237.96 132.82 239.34 133.40L239.34 133.40L239.34 131.81Q239.34 129.05 237.78 127.57Q236.21 126.09 233.14 126.09L233.14 126.09Q230.91 126.09 228.79 126.88Q226.67 127.68 224.45 129.21L224.45 129.21L222.28 124.71Q227.63 121.16 233.83 121.16L233.83 121.16Q239.82 121.16 243.13 124.10Q246.44 127.04 246.44 132.60L246.44 132.60L246.44 141.24Q246.44 142.36 246.84 142.83Q247.24 143.31 248.14 143.36L248.14 143.36L248.14 149.41Q246.34 149.78 245.01 149.78L245.01 149.78Q243.00 149.78 241.91 148.88Q240.83 147.97 240.56 146.49L240.56 146.49L240.40 144.95Q238.55 147.39 235.90 148.66Q233.25 149.94 230.23 149.94ZM232.24 144.74L232.24 144.74Q234.04 144.74 235.66 144.11Q237.27 143.47 238.18 142.41L238.18 142.41Q239.34 141.51 239.34 140.40L239.34 140.40L239.34 137.22Q238.07 136.74 236.59 136.45Q235.10 136.16 233.72 136.16L233.72 136.16Q230.97 136.16 229.22 137.40Q227.47 138.65 227.47 140.55L227.47 140.55Q227.47 142.36 228.85 143.55Q230.23 144.74 232.24 144.74ZM263.93 149.56L263.93 149.56Q261.12 149.56 258.85 148.45Q256.57 147.34 254.90 145.40Q253.23 143.47 252.33 140.93Q251.43 138.38 251.43 135.52L251.43 135.52Q251.43 132.50 252.38 129.90Q253.33 127.30 255.03 125.34Q256.73 123.38 259.11 122.27Q261.50 121.16 264.36 121.16L264.36 121.16Q267.59 121.16 270.03 122.61Q272.47 124.07 274.06 126.51L274.06 126.51L274.06 121.63L280.26 121.63L280.26 148.08Q280.26 151.15 279.09 153.59Q277.93 156.03 275.88 157.73Q273.84 159.42 271.01 160.32Q268.17 161.22 264.83 161.22L264.83 161.22Q260.28 161.22 257.18 159.71Q254.08 158.20 251.85 155.45L251.85 155.45L255.72 151.68Q257.31 153.65 259.72 154.76Q262.13 155.87 264.83 155.87L264.83 155.87Q266.48 155.87 267.99 155.42Q269.50 154.97 270.66 154.02Q271.83 153.06 272.49 151.58Q273.16 150.09 273.16 148.08L273.16 148.08L273.16 144.58Q271.78 146.97 269.29 148.27Q266.80 149.56 263.93 149.56ZM266.32 143.89L266.32 143.89Q267.48 143.89 268.54 143.52Q269.60 143.15 270.51 142.52Q271.41 141.88 272.10 141.03Q272.78 140.18 273.16 139.23L273.16 139.23L273.16 132.60Q272.20 130.17 270.16 128.68Q268.12 127.20 265.89 127.20L265.89 127.20Q264.25 127.20 262.93 127.91Q261.60 128.63 260.65 129.82Q259.69 131.01 259.19 132.55Q258.69 134.09 258.69 135.73L258.69 135.73Q258.69 137.43 259.27 138.91Q259.85 140.40 260.89 141.51Q261.92 142.62 263.30 143.26Q264.68 143.89 266.32 143.89ZM299.55 149.94L299.55 149.94Q296.21 149.94 293.51 148.80Q290.80 147.66 288.90 145.70Q286.99 143.73 285.95 141.14Q284.92 138.54 284.92 135.68L284.92 135.68Q284.92 132.71 285.93 130.09Q286.94 127.46 288.84 125.48Q290.75 123.49 293.48 122.32Q296.21 121.16 299.60 121.16L299.60 121.16Q302.99 121.16 305.67 122.32Q308.35 123.49 310.23 125.45Q312.11 127.41 313.09 130.01Q314.07 132.60 314.07 135.41L314.07 135.41Q314.07 136.10 314.05 136.74Q314.02 137.37 313.91 137.80L313.91 137.80L292.45 137.80Q292.61 139.44 293.24 140.71Q293.88 141.99 294.89 142.89Q295.89 143.79 297.16 144.26Q298.44 144.74 299.81 144.74L299.81 144.74Q301.93 144.74 303.82 143.71Q305.70 142.67 306.39 140.98L306.39 140.98L312.48 142.67Q310.94 145.85 307.58 147.89Q304.21 149.94 299.55 149.94ZM292.34 133.19L306.76 133.19Q306.49 130.06 304.45 128.18Q302.41 126.30 299.50 126.30L299.50 126.30Q298.07 126.30 296.82 126.80Q295.57 127.30 294.62 128.21Q293.67 129.11 293.06 130.38Q292.45 131.65 292.34 133.19L292.34 133.19Z" fill="#999999"/></svg>